<?xml version="1.0" standalone="no"?>
<!DOCTYPE svg PUBLIC "-//W3C//DTD SVG 20010904//EN"
 "http://www.w3.org/TR/2001/REC-SVG-20010904/DTD/svg10.dtd">
<svg version="1.0" xmlns="http://www.w3.org/2000/svg"
 width="1024.000000pt" height="1024.000000pt" viewBox="0 0 1024.000000 1024.000000"
 preserveAspectRatio="xMidYMid meet">
<metadata>
Created by potrace 1.11, written by Peter Selinger 2001-2013
</metadata>
<g transform="translate(0.000000,1024.000000) scale(0.100000,-0.100000)"
fill="#000000" stroke="none">
<path d="M5075 5456 c-2701 -486 -4927 -886 -4948 -890 -59 -11 -108 -61 -114
-116 -6 -55 52 -375 73 -408 22 -34 74 -62 114 -62 19 0 70 7 112 15 133 25
622 94 893 125 670 76 1352 125 2120 151 387 13 1478 7 1785 -11 1022 -57
1772 -168 2316 -344 61 -20 118 -36 127 -36 18 0 2582 1863 2636 1915 47 46
49 86 12 288 -33 181 -36 190 -75 226 -21 19 -39 25 -84 27 -41 2 -1463 -250
-4967 -880z m4959 712 c17 -82 26 -131 23 -134 -1 -2 -2212 -399 -4912 -884
-2701 -484 -4921 -883 -4935 -885 -25 -6 -26 -3 -39 71 -7 41 -10 79 -6 82 6
7 9802 1769 9842 1771 16 1 24 -6 27 -21z"/>
</g>
</svg>
